<?xml version="1.0" encoding="UTF-8"?>
<!DOCTYPE svg PUBLIC "-//W3C//DTD SVG 1.1//EN" "http://www.w3.org/Graphics/SVG/1.1/DTD/svg11.dtd">
<svg xmlns="http://www.w3.org/2000/svg" version="1.1" width="103px" height="103px" style="shape-rendering:geometricPrecision; text-rendering:geometricPrecision; image-rendering:optimizeQuality; fill-rule:evenodd; clip-rule:evenodd" xmlns:xlink="http://www.w3.org/1999/xlink">
<g><path style="opacity:0.673" fill="#fed500" d="M 47.5,-0.5 C 49.8333,-0.5 52.1667,-0.5 54.5,-0.5C 55.1667,0.166667 55.8333,0.833333 56.5,1.5C 52.8333,1.5 49.1667,1.5 45.5,1.5C 46.1667,0.833333 46.8333,0.166667 47.5,-0.5 Z"/></g>
<g><path style="opacity:0.865" fill="#ffd101" d="M 45.5,1.5 C 49.1667,1.5 52.8333,1.5 56.5,1.5C 67.4843,6.32548 78.151,11.6588 88.5,17.5C 81.8333,17.5 75.1667,17.5 68.5,17.5C 62.6287,14.9821 56.7953,12.3154 51,9.5C 45.2047,12.3154 39.3713,14.9821 33.5,17.5C 26.8333,17.5 20.1667,17.5 13.5,17.5C 23.849,11.6588 34.5157,6.32548 45.5,1.5 Z"/></g>
<g><path style="opacity:0.868" fill="#ffcb04" d="M 13.5,17.5 C 20.1667,17.5 26.8333,17.5 33.5,17.5C 27.5622,20.8055 21.5622,24.1389 15.5,27.5C 17.5654,28.8567 19.5654,30.19 21.5,31.5C 15.1667,31.5 8.83333,31.5 2.5,31.5C 1.39105,31.4431 0.391047,31.1098 -0.5,30.5C -0.5,28.5 -0.5,26.5 -0.5,24.5C 3.88323,21.6417 8.54989,19.3084 13.5,17.5 Z"/></g>
<g><path style="opacity:0.874" fill="#ffcb04" d="M 68.5,17.5 C 75.1667,17.5 81.8333,17.5 88.5,17.5C 93.4501,19.3084 98.1168,21.6417 102.5,24.5C 102.5,26.5 102.5,28.5 102.5,30.5C 101.609,31.1098 100.609,31.4431 99.5,31.5C 93.1667,31.5 86.8333,31.5 80.5,31.5C 82.4346,30.19 84.4346,28.8567 86.5,27.5C 80.4378,24.1389 74.4378,20.8055 68.5,17.5 Z"/></g>
<g><path style="opacity:0.883" fill="#ffc605" d="M 2.5,31.5 C 8.83333,31.5 15.1667,31.5 21.5,31.5C 23.8185,31.9925 25.8185,32.9925 27.5,34.5C 21.1667,34.5 14.8333,34.5 8.5,34.5C 6.18147,34.0075 4.18147,33.0075 2.5,31.5 Z"/></g>
<g><path style="opacity:0.894" fill="#ffc605" d="M 80.5,31.5 C 86.8333,31.5 93.1667,31.5 99.5,31.5C 97.8185,33.0075 95.8185,34.0075 93.5,34.5C 87.1667,34.5 80.8333,34.5 74.5,34.5C 76.1815,32.9925 78.1815,31.9925 80.5,31.5 Z"/></g>
<g><path style="opacity:0.882" fill="#ffc307" d="M 8.5,34.5 C 14.8333,34.5 21.1667,34.5 27.5,34.5C 32.4844,36.3255 37.1511,38.6589 41.5,41.5C 35.1667,41.5 28.8333,41.5 22.5,41.5C 17.5156,39.6745 12.8489,37.3411 8.5,34.5 Z"/></g>
<g><path style="opacity:0.894" fill="#ffc307" d="M 74.5,34.5 C 80.8333,34.5 87.1667,34.5 93.5,34.5C 89.1511,37.3411 84.4844,39.6745 79.5,41.5C 73.1667,41.5 66.8333,41.5 60.5,41.5C 64.8489,38.6589 69.5156,36.3255 74.5,34.5 Z"/></g>
<g><path style="opacity:0.902" fill="#ffbe09" d="M 22.5,41.5 C 28.8333,41.5 35.1667,41.5 41.5,41.5C 44.7029,42.6829 47.8695,44.0163 51,45.5C 54.1305,44.0163 57.2971,42.6829 60.5,41.5C 66.8333,41.5 73.1667,41.5 79.5,41.5C 73.8177,45.0078 67.8177,48.0078 61.5,50.5C 54.5,50.5 47.5,50.5 40.5,50.5C 34.1823,48.0078 28.1823,45.0078 22.5,41.5 Z"/></g>
<g><path style="opacity:0.742" fill="#ffbc0a" d="M 12.5,50.5 C 8.16667,50.5 3.83333,50.5 -0.5,50.5C -0.5,49.5 -0.5,48.5 -0.5,47.5C 4.44824,45.8248 8.78158,46.8248 12.5,50.5 Z"/></g>
<g><path style="opacity:0.76" fill="#ffbc0a" d="M 102.5,47.5 C 102.5,48.5 102.5,49.5 102.5,50.5C 98.1667,50.5 93.8333,50.5 89.5,50.5C 93.192,46.8276 97.5254,45.8276 102.5,47.5 Z"/></g>
<g><path style="opacity:0.875" fill="#feb90b" d="M -0.5,50.5 C 3.83333,50.5 8.16667,50.5 12.5,50.5C 17.4844,52.3255 22.1511,54.6589 26.5,57.5C 19.8333,57.5 13.1667,57.5 6.5,57.5C 4.04616,56.7729 1.71283,55.7729 -0.5,54.5C -0.5,53.1667 -0.5,51.8333 -0.5,50.5 Z"/></g>
<g><path style="opacity:0.797" fill="#feba0b" d="M 40.5,50.5 C 47.5,50.5 54.5,50.5 61.5,50.5C 58.3826,52.8073 54.8826,54.474 51,55.5C 47.1174,54.474 43.6174,52.8073 40.5,50.5 Z"/></g>
<g><path style="opacity:0.88" fill="#feb90b" d="M 89.5,50.5 C 93.8333,50.5 98.1667,50.5 102.5,50.5C 102.5,51.8333 102.5,53.1667 102.5,54.5C 100.287,55.7729 97.9538,56.7729 95.5,57.5C 88.8333,57.5 82.1667,57.5 75.5,57.5C 79.8489,54.6589 84.5156,52.3255 89.5,50.5 Z"/></g>
<g><path style="opacity:0.855" fill="#feb60c" d="M 6.5,57.5 C 13.1667,57.5 19.8333,57.5 26.5,57.5C 28.8185,57.9925 30.8185,58.9925 32.5,60.5C 25.8333,60.5 19.1667,60.5 12.5,60.5C 10.1815,60.0075 8.18147,59.0075 6.5,57.5 Z"/></g>
<g><path style="opacity:0.864" fill="#feb60c" d="M 75.5,57.5 C 82.1667,57.5 88.8333,57.5 95.5,57.5C 93.8185,59.0075 91.8185,60.0075 89.5,60.5C 82.8333,60.5 76.1667,60.5 69.5,60.5C 71.1815,58.9925 73.1815,57.9925 75.5,57.5 Z"/></g>
<g><path style="opacity:0.865" fill="#feb20e" d="M 12.5,60.5 C 19.1667,60.5 25.8333,60.5 32.5,60.5C 38.8439,63.0884 45.0106,66.0884 51,69.5C 56.9894,66.0884 63.1561,63.0884 69.5,60.5C 76.1667,60.5 82.8333,60.5 89.5,60.5C 82.4843,64.6745 75.151,68.3412 67.5,71.5C 56.5,71.5 45.5,71.5 34.5,71.5C 26.849,68.3412 19.5157,64.6745 12.5,60.5 Z"/></g>
<g><path style="opacity:0.461" fill="#feaf0f" d="M 101.5,71.5 C 99.1667,71.5 96.8333,71.5 94.5,71.5C 96.9024,69.1093 99.2358,69.1093 101.5,71.5 Z"/></g>
<g><path style="opacity:0.855" fill="#feab11" d="M 27.5,81.5 C 20.8333,81.5 14.1667,81.5 7.5,81.5C 4.54978,80.6916 1.88311,79.3582 -0.5,77.5C -0.5,75.5 -0.5,73.5 -0.5,71.5C 2.07283,70.4448 4.73949,70.2782 7.5,71C 14.3859,74.2743 21.0526,77.7743 27.5,81.5 Z"/></g>
<g><path style="opacity:0.82" fill="#fead10" d="M 34.5,71.5 C 45.5,71.5 56.5,71.5 67.5,71.5C 62.3973,74.8003 56.8973,77.4669 51,79.5C 45.1337,77.4829 39.6337,74.8163 34.5,71.5 Z"/></g>
<g><path style="opacity:0.864" fill="#feab11" d="M 94.5,71.5 C 96.8333,71.5 99.1667,71.5 101.5,71.5C 101.833,71.5 102.167,71.5 102.5,71.5C 102.5,73.5 102.5,75.5 102.5,77.5C 100.117,79.3582 97.4502,80.6916 94.5,81.5C 87.8333,81.5 81.1667,81.5 74.5,81.5C 80.849,77.6588 87.5157,74.3255 94.5,71.5 Z"/></g>
<g><path style="opacity:0.853" fill="#fda912" d="M 7.5,81.5 C 14.1667,81.5 20.8333,81.5 27.5,81.5C 29.153,81.6596 30.4863,82.3263 31.5,83.5C 24.8333,83.5 18.1667,83.5 11.5,83.5C 9.84702,83.3404 8.51369,82.6737 7.5,81.5 Z"/></g>
<g><path style="opacity:0.859" fill="#fda912" d="M 74.5,81.5 C 81.1667,81.5 87.8333,81.5 94.5,81.5C 93.4863,82.6737 92.153,83.3404 90.5,83.5C 83.8333,83.5 77.1667,83.5 70.5,83.5C 71.5137,82.3263 72.847,81.6596 74.5,81.5 Z"/></g>
<g><path style="opacity:0.866" fill="#fea514" d="M 11.5,83.5 C 18.1667,83.5 24.8333,83.5 31.5,83.5C 38.0382,86.3515 44.5382,89.3515 51,92.5C 57.4618,89.3515 63.9618,86.3515 70.5,83.5C 77.1667,83.5 83.8333,83.5 90.5,83.5C 81.4843,88.6745 72.151,93.3412 62.5,97.5C 54.8333,97.5 47.1667,97.5 39.5,97.5C 29.849,93.3412 20.5157,88.6745 11.5,83.5 Z"/></g>
<g><path style="opacity:0.783" fill="#fea115" d="M 39.5,97.5 C 47.1667,97.5 54.8333,97.5 62.5,97.5C 59.8333,99.1667 57.1667,100.833 54.5,102.5C 52.1667,102.5 49.8333,102.5 47.5,102.5C 44.8333,100.833 42.1667,99.1667 39.5,97.5 Z"/></g>
</svg>
